# xmcd CD database file
#
# Track frame offsets:
#	150
#	16559
#	26560
#	40646
#	57801
#	67500
#	81192
#	90889
#	109381
#	125869
#	144653
#	160404
#	171715
#	187139
#	203314
#	216927
#	228775
#	243254
#	254666
#	267985
#	286181
#	299596
#	316334
#	326392
#
# Disc length: 4478 seconds
#
# Revision: 0
# Processed by: cddbd v1.5.1PL0 Copyright (c) Steve Scherf et al.
# Submitted via: CDex 1.51
#
DISCID=55117c18
DTITLE=Die Konsertina Koning - 24 Boerekonsertina Treffers
DYEAR=2002
DGENRE=Country
TTITLE0=Sproeitjies
TTITLE1=I don't wanna play house
TTITLE2=Sien jou weer
TTITLE3=I fall to pieces
TTITLE4=Daar is niks soos ware liefde
TTITLE5=Lovers live longer
TTITLE6=Ek het jou lief
TTITLE7=I have a dream
TTITLE8=Hoe se mens dankie
TTITLE9=Baby you've been good to me
TTITLE10=Sweef soos 'n arend
TTITLE11=Some broken hearts never mend
TTITLE12=Stille rivierstroom
TTITLE13=Why don't we spend the night
TTITLE14=Liefling
TTITLE15=There goes my everything
TTITLE16=Wil jy dans Carina
TTITLE17=The white rose of Athens
TTITLE18=Liefste Madelein
TTITLE19=Liewe Lulu
TTITLE20=Memory of lovers
TTITLE21=Ska rumba
TTITLE22=Lekker ou Jan
TTITLE23=Melkbos setees
EXTD=YEAR: 2002
EXTT0=
EXTT1=
EXTT2=
EXTT3=
EXTT4=
EXTT5=
EXTT6=
EXTT7=
EXTT8=
EXTT9=
EXTT10=
EXTT11=
EXTT12=
EXTT13=
EXTT14=
EXTT15=
EXTT16=
EXTT17=
EXTT18=
EXTT19=
EXTT20=
EXTT21=
EXTT22=
EXTT23=
PLAYORDER=
